<mxfile host="Electron" agent="Mozilla/5.0 (Windows NT 10.0; Win64; x64) AppleWebKit/537.36 (KHTML, like Gecko) draw.io/26.0.16 Chrome/132.0.6834.196 Electron/34.2.0 Safari/537.36" version="26.0.16">
  <diagram name="Page-1" id="RzzOeVVuILVj-rKlgHVC">
    <mxGraphModel dx="1050" dy="621" grid="1" gridSize="10" guides="1" tooltips="1" connect="1" arrows="1" fold="1" page="1" pageScale="1" pageWidth="827" pageHeight="1169" math="1" shadow="0">
      <root>
        <mxCell id="0" />
        <mxCell id="1" parent="0" />
        <mxCell id="gUi6T0lL7PWdZWDNChdu-5" style="edgeStyle=orthogonalEdgeStyle;rounded=0;orthogonalLoop=1;jettySize=auto;html=1;" edge="1" parent="1" source="eanLGl2QmDvSTj4xEBTI-2">
          <mxGeometry relative="1" as="geometry">
            <mxPoint x="80" y="150" as="targetPoint" />
          </mxGeometry>
        </mxCell>
        <mxCell id="eanLGl2QmDvSTj4xEBTI-2" value="RadioML 2018&amp;nbsp;&lt;div&gt;Dataset&lt;/div&gt;" style="shape=cylinder3;whiteSpace=wrap;html=1;boundedLbl=1;backgroundOutline=1;size=15;fontColor=default;fillColor=none;fontFamily=Times New Roman;fontSize=14;" parent="1" vertex="1">
          <mxGeometry x="45" y="30" width="70" height="90" as="geometry" />
        </mxCell>
        <mxCell id="eanLGl2QmDvSTj4xEBTI-3" value="Custom Generated&amp;nbsp;" style="shape=cylinder3;whiteSpace=wrap;html=1;boundedLbl=1;backgroundOutline=1;size=15;fontColor=default;fillColor=none;fontFamily=Times New Roman;fontSize=14;" parent="1" vertex="1">
          <mxGeometry x="45" y="240" width="70" height="80" as="geometry" />
        </mxCell>
        <mxCell id="0jSEqFvIDRf8wKyZjfaD-10" style="edgeStyle=orthogonalEdgeStyle;rounded=0;orthogonalLoop=1;jettySize=auto;html=1;exitX=1;exitY=0.5;exitDx=0;exitDy=0;exitPerimeter=0;fontFamily=Times New Roman;fontSize=14;" parent="1" source="eanLGl2QmDvSTj4xEBTI-4" target="eanLGl2QmDvSTj4xEBTI-5" edge="1">
          <mxGeometry relative="1" as="geometry" />
        </mxCell>
        <mxCell id="0jSEqFvIDRf8wKyZjfaD-28" value="Pre-&lt;div&gt;processing&lt;/div&gt;" style="edgeLabel;html=1;align=center;verticalAlign=middle;resizable=0;points=[];fontSize=13;fontFamily=Times New Roman;labelBackgroundColor=none;rotation=0;" parent="0jSEqFvIDRf8wKyZjfaD-10" vertex="1" connectable="0">
          <mxGeometry x="-0.4167" y="1" relative="1" as="geometry">
            <mxPoint x="13" y="1" as="offset" />
          </mxGeometry>
        </mxCell>
        <mxCell id="eanLGl2QmDvSTj4xEBTI-4" value="Combined Dataset" style="shape=cylinder3;whiteSpace=wrap;html=1;boundedLbl=1;backgroundOutline=1;size=15;fontColor=default;fillColor=none;fontFamily=Times New Roman;fontSize=14;" parent="1" vertex="1">
          <mxGeometry x="130" y="140" width="60" height="70" as="geometry" />
        </mxCell>
        <mxCell id="eanLGl2QmDvSTj4xEBTI-5" value="&lt;font&gt;Pre-&lt;/font&gt;&lt;div&gt;&lt;font&gt;&lt;font&gt;processed Da&lt;/font&gt;ta&lt;/font&gt;&lt;/div&gt;" style="shape=cylinder3;whiteSpace=wrap;html=1;boundedLbl=1;backgroundOutline=1;size=15;fontColor=default;fillColor=none;fontFamily=Times New Roman;fontSize=14;" parent="1" vertex="1">
          <mxGeometry x="260" y="130" width="61" height="90" as="geometry" />
        </mxCell>
        <mxCell id="0jSEqFvIDRf8wKyZjfaD-14" style="edgeStyle=orthogonalEdgeStyle;rounded=0;orthogonalLoop=1;jettySize=auto;html=1;exitX=1;exitY=0.5;exitDx=0;exitDy=0;exitPerimeter=0;entryX=0;entryY=0.5;entryDx=0;entryDy=0;fontFamily=Times New Roman;fontSize=14;" parent="1" source="eanLGl2QmDvSTj4xEBTI-6" target="eanLGl2QmDvSTj4xEBTI-12" edge="1">
          <mxGeometry relative="1" as="geometry" />
        </mxCell>
        <mxCell id="eanLGl2QmDvSTj4xEBTI-6" value="Train Data" style="shape=cylinder3;whiteSpace=wrap;html=1;boundedLbl=1;backgroundOutline=1;size=15;fontColor=default;fillColor=none;fontFamily=Times New Roman;fontSize=14;" parent="1" vertex="1">
          <mxGeometry x="370" y="40" width="60" height="70" as="geometry" />
        </mxCell>
        <mxCell id="gY0sS7H1kkGOP2eneE4W-3" style="edgeStyle=orthogonalEdgeStyle;rounded=0;orthogonalLoop=1;jettySize=auto;html=1;exitX=0.5;exitY=1;exitDx=0;exitDy=0;exitPerimeter=0;entryX=0.5;entryY=0;entryDx=0;entryDy=0;fontFamily=Times New Roman;fontSize=14;" parent="1" source="eanLGl2QmDvSTj4xEBTI-7" target="eanLGl2QmDvSTj4xEBTI-16" edge="1">
          <mxGeometry relative="1" as="geometry" />
        </mxCell>
        <mxCell id="eanLGl2QmDvSTj4xEBTI-7" value="Test Data" style="shape=cylinder3;whiteSpace=wrap;html=1;boundedLbl=1;backgroundOutline=1;size=15;fontColor=default;fillColor=none;fontFamily=Times New Roman;fontSize=14;" parent="1" vertex="1">
          <mxGeometry x="370" y="240" width="60" height="70" as="geometry" />
        </mxCell>
        <mxCell id="eanLGl2QmDvSTj4xEBTI-8" value="Validation Data" style="shape=cylinder3;whiteSpace=wrap;html=1;boundedLbl=1;backgroundOutline=1;size=15;fontColor=default;fillColor=none;fontFamily=Times New Roman;fontSize=14;" parent="1" vertex="1">
          <mxGeometry x="370" y="140" width="60" height="70" as="geometry" />
        </mxCell>
        <mxCell id="3tJLAwdJRVkplcRSM55D-11" style="edgeStyle=orthogonalEdgeStyle;rounded=0;orthogonalLoop=1;jettySize=auto;html=1;exitX=0.5;exitY=1;exitDx=0;exitDy=0;entryX=0.5;entryY=0;entryDx=0;entryDy=0;fontFamily=Times New Roman;fontSize=14;" parent="1" source="eanLGl2QmDvSTj4xEBTI-12" target="eanLGl2QmDvSTj4xEBTI-14" edge="1">
          <mxGeometry relative="1" as="geometry" />
        </mxCell>
        <mxCell id="eanLGl2QmDvSTj4xEBTI-12" value="Model Train" style="rounded=0;whiteSpace=wrap;html=1;fillColor=none;fontFamily=Times New Roman;fontSize=14;" parent="1" vertex="1">
          <mxGeometry x="470" y="45" width="120" height="60" as="geometry" />
        </mxCell>
        <mxCell id="eanLGl2QmDvSTj4xEBTI-13" value="Best Model" style="rounded=0;whiteSpace=wrap;html=1;fillColor=none;fontFamily=Times New Roman;fontSize=14;" parent="1" vertex="1">
          <mxGeometry x="520" y="370" width="100" height="60" as="geometry" />
        </mxCell>
        <mxCell id="3tJLAwdJRVkplcRSM55D-18" style="edgeStyle=orthogonalEdgeStyle;rounded=0;orthogonalLoop=1;jettySize=auto;html=1;exitX=0.5;exitY=1;exitDx=0;exitDy=0;entryX=0.5;entryY=0;entryDx=0;entryDy=0;fontFamily=Times New Roman;fontSize=14;" parent="1" source="eanLGl2QmDvSTj4xEBTI-14" edge="1">
          <mxGeometry relative="1" as="geometry">
            <mxPoint x="530" y="240" as="targetPoint" />
          </mxGeometry>
        </mxCell>
        <mxCell id="eanLGl2QmDvSTj4xEBTI-14" value="Model Validate" style="rounded=0;whiteSpace=wrap;html=1;fillColor=none;fontFamily=Times New Roman;fontSize=14;" parent="1" vertex="1">
          <mxGeometry x="470" y="140" width="120" height="60" as="geometry" />
        </mxCell>
        <mxCell id="eanLGl2QmDvSTj4xEBTI-15" value="Hyperparameter Tuning" style="rounded=0;whiteSpace=wrap;html=1;fillColor=none;fontFamily=Times New Roman;fontSize=14;" parent="1" vertex="1">
          <mxGeometry x="610" y="140" width="100" height="60" as="geometry" />
        </mxCell>
        <mxCell id="gY0sS7H1kkGOP2eneE4W-4" style="edgeStyle=orthogonalEdgeStyle;rounded=0;orthogonalLoop=1;jettySize=auto;html=1;exitX=1;exitY=0.5;exitDx=0;exitDy=0;entryX=0;entryY=0.5;entryDx=0;entryDy=0;endArrow=none;startFill=1;startArrow=classic;fontFamily=Times New Roman;fontSize=14;" parent="1" source="eanLGl2QmDvSTj4xEBTI-16" target="eanLGl2QmDvSTj4xEBTI-13" edge="1">
          <mxGeometry relative="1" as="geometry" />
        </mxCell>
        <mxCell id="gY0sS7H1kkGOP2eneE4W-8" style="edgeStyle=orthogonalEdgeStyle;rounded=0;orthogonalLoop=1;jettySize=auto;html=1;exitX=0;exitY=0.5;exitDx=0;exitDy=0;entryX=1;entryY=0.5;entryDx=0;entryDy=0;fontFamily=Times New Roman;fontSize=14;" parent="1" source="eanLGl2QmDvSTj4xEBTI-16" target="gY0sS7H1kkGOP2eneE4W-7" edge="1">
          <mxGeometry relative="1" as="geometry" />
        </mxCell>
        <mxCell id="eanLGl2QmDvSTj4xEBTI-16" value="Model Testing" style="rounded=0;whiteSpace=wrap;html=1;fontFamily=Times New Roman;fontSize=14;fillColor=none;" parent="1" vertex="1">
          <mxGeometry x="350" y="370" width="100" height="60" as="geometry" />
        </mxCell>
        <mxCell id="0jSEqFvIDRf8wKyZjfaD-17" style="edgeStyle=orthogonalEdgeStyle;rounded=0;orthogonalLoop=1;jettySize=auto;html=1;exitX=1;exitY=0.5;exitDx=0;exitDy=0;exitPerimeter=0;entryX=0;entryY=0.587;entryDx=0;entryDy=0;entryPerimeter=0;fontFamily=Times New Roman;fontSize=14;" parent="1" source="eanLGl2QmDvSTj4xEBTI-8" target="eanLGl2QmDvSTj4xEBTI-14" edge="1">
          <mxGeometry relative="1" as="geometry" />
        </mxCell>
        <mxCell id="0jSEqFvIDRf8wKyZjfaD-26" style="edgeStyle=orthogonalEdgeStyle;rounded=0;orthogonalLoop=1;jettySize=auto;html=1;exitX=0.5;exitY=0;exitDx=0;exitDy=0;entryX=1.003;entryY=0.388;entryDx=0;entryDy=0;entryPerimeter=0;fontFamily=Times New Roman;fontSize=14;" parent="1" source="eanLGl2QmDvSTj4xEBTI-15" target="eanLGl2QmDvSTj4xEBTI-12" edge="1">
          <mxGeometry relative="1" as="geometry" />
        </mxCell>
        <mxCell id="3tJLAwdJRVkplcRSM55D-4" style="edgeStyle=orthogonalEdgeStyle;rounded=0;orthogonalLoop=1;jettySize=auto;html=1;exitX=0.5;exitY=0;exitDx=0;exitDy=0;exitPerimeter=0;entryX=0.5;entryY=1;entryDx=0;entryDy=0;entryPerimeter=0;fontFamily=Times New Roman;fontSize=14;" parent="1" source="eanLGl2QmDvSTj4xEBTI-3" edge="1">
          <mxGeometry relative="1" as="geometry">
            <mxPoint x="80" y="200" as="targetPoint" />
          </mxGeometry>
        </mxCell>
        <mxCell id="3tJLAwdJRVkplcRSM55D-6" style="edgeStyle=orthogonalEdgeStyle;rounded=0;orthogonalLoop=1;jettySize=auto;html=1;exitX=1;exitY=0.5;exitDx=0;exitDy=0;exitPerimeter=0;entryX=0;entryY=0.5;entryDx=0;entryDy=0;entryPerimeter=0;fontFamily=Times New Roman;fontSize=14;" parent="1" source="eanLGl2QmDvSTj4xEBTI-5" target="eanLGl2QmDvSTj4xEBTI-8" edge="1">
          <mxGeometry relative="1" as="geometry" />
        </mxCell>
        <mxCell id="3tJLAwdJRVkplcRSM55D-9" style="edgeStyle=orthogonalEdgeStyle;rounded=0;orthogonalLoop=1;jettySize=auto;html=1;exitX=1;exitY=0.5;exitDx=0;exitDy=0;exitPerimeter=0;entryX=-0.017;entryY=0.562;entryDx=0;entryDy=0;entryPerimeter=0;fontFamily=Times New Roman;fontSize=14;" parent="1" source="eanLGl2QmDvSTj4xEBTI-5" target="eanLGl2QmDvSTj4xEBTI-6" edge="1">
          <mxGeometry relative="1" as="geometry" />
        </mxCell>
        <mxCell id="3tJLAwdJRVkplcRSM55D-10" style="edgeStyle=orthogonalEdgeStyle;rounded=0;orthogonalLoop=1;jettySize=auto;html=1;exitX=1;exitY=0.5;exitDx=0;exitDy=0;exitPerimeter=0;entryX=0;entryY=0;entryDx=0;entryDy=45;entryPerimeter=0;fontFamily=Times New Roman;fontSize=14;" parent="1" source="eanLGl2QmDvSTj4xEBTI-5" target="eanLGl2QmDvSTj4xEBTI-7" edge="1">
          <mxGeometry relative="1" as="geometry" />
        </mxCell>
        <mxCell id="gY0sS7H1kkGOP2eneE4W-7" value="Evaluation&amp;nbsp;&lt;div&gt;Metrices&lt;/div&gt;" style="rounded=0;whiteSpace=wrap;html=1;fontFamily=Times New Roman;fontSize=14;fillColor=none;" parent="1" vertex="1">
          <mxGeometry x="200" y="370" width="100" height="60" as="geometry" />
        </mxCell>
        <mxCell id="u_L6jB40-t_OukRbssDX-3" style="edgeStyle=orthogonalEdgeStyle;rounded=0;orthogonalLoop=1;jettySize=auto;html=1;exitX=0.5;exitY=1;exitDx=0;exitDy=0;entryX=1;entryY=0.5;entryDx=0;entryDy=0;fontFamily=Times New Roman;fontSize=14;" parent="1" source="u_L6jB40-t_OukRbssDX-1" target="eanLGl2QmDvSTj4xEBTI-13" edge="1">
          <mxGeometry relative="1" as="geometry">
            <Array as="points">
              <mxPoint x="530" y="350" />
              <mxPoint x="640" y="350" />
              <mxPoint x="640" y="400" />
            </Array>
          </mxGeometry>
        </mxCell>
        <mxCell id="gUi6T0lL7PWdZWDNChdu-11" style="edgeStyle=orthogonalEdgeStyle;rounded=0;orthogonalLoop=1;jettySize=auto;html=1;entryX=0.5;entryY=1;entryDx=0;entryDy=0;" edge="1" parent="1" source="u_L6jB40-t_OukRbssDX-1" target="eanLGl2QmDvSTj4xEBTI-15">
          <mxGeometry relative="1" as="geometry" />
        </mxCell>
        <mxCell id="u_L6jB40-t_OukRbssDX-1" value="&lt;span&gt;Minimum&amp;nbsp;&lt;/span&gt;&lt;div&gt;&lt;span&gt;Tolerable&amp;nbsp;&lt;/span&gt;&lt;/div&gt;&lt;div&gt;&lt;span&gt;Loss?&lt;/span&gt;&lt;/div&gt;" style="rhombus;whiteSpace=wrap;html=1;fillColor=none;fontFamily=Times New Roman;fontSize=14;" parent="1" vertex="1">
          <mxGeometry x="470" y="240" width="120" height="100" as="geometry" />
        </mxCell>
        <mxCell id="gUi6T0lL7PWdZWDNChdu-4" value="" style="edgeStyle=orthogonalEdgeStyle;rounded=0;orthogonalLoop=1;jettySize=auto;html=1;" edge="1" parent="1" source="gUi6T0lL7PWdZWDNChdu-1" target="eanLGl2QmDvSTj4xEBTI-4">
          <mxGeometry relative="1" as="geometry" />
        </mxCell>
        <mxCell id="gUi6T0lL7PWdZWDNChdu-1" value="" style="ellipse;whiteSpace=wrap;html=1;aspect=fixed;" vertex="1" parent="1">
          <mxGeometry x="60" y="155" width="40" height="40" as="geometry" />
        </mxCell>
        <mxCell id="gUi6T0lL7PWdZWDNChdu-6" value="$$\sum$$" style="ellipse;whiteSpace=wrap;html=1;aspect=fixed;" vertex="1" parent="1">
          <mxGeometry x="65" y="160" width="30" height="30" as="geometry" />
        </mxCell>
        <mxCell id="gUi6T0lL7PWdZWDNChdu-9" value="&lt;font face=&quot;Times New Roman&quot; style=&quot;font-size: 14px;&quot;&gt;No&lt;/font&gt;" style="text;html=1;align=center;verticalAlign=middle;resizable=0;points=[];autosize=1;strokeColor=none;fillColor=none;" vertex="1" parent="1">
          <mxGeometry x="610" y="268" width="40" height="30" as="geometry" />
        </mxCell>
        <mxCell id="gUi6T0lL7PWdZWDNChdu-10" value="&lt;font style=&quot;font-size: 14px;&quot; face=&quot;Times New Roman&quot;&gt;Yes&lt;/font&gt;" style="text;html=1;align=center;verticalAlign=middle;resizable=0;points=[];autosize=1;strokeColor=none;fillColor=none;" vertex="1" parent="1">
          <mxGeometry x="570" y="328" width="40" height="30" as="geometry" />
        </mxCell>
      </root>
    </mxGraphModel>
  </diagram>
</mxfile>
